<?xml version="1.0" encoding="UTF-8" standalone="no"?>
<!-- Created with Inkscape (http://www.inkscape.org/) -->

<svg
   version="1.1"
   id="svg6460"
   width="832.99884"
   height="342.45816"
   viewBox="0 0 832.99884 342.45816"
   sodipodi:docname="logo.svg"
   inkscape:version="1.2.2 (732a01da63, 2022-12-09)"
   inkscape:export-filename="logo.png"
   inkscape:export-xdpi="96"
   inkscape:export-ydpi="96"
   xmlns:inkscape="http://www.inkscape.org/namespaces/inkscape"
   xmlns:sodipodi="http://sodipodi.sourceforge.net/DTD/sodipodi-0.dtd"
   xmlns="http://www.w3.org/2000/svg"
   xmlns:svg="http://www.w3.org/2000/svg">
  <defs
     id="defs6464" />
  <sodipodi:namedview
     id="namedview6462"
     pagecolor="#ffffff"
     bordercolor="#000000"
     borderopacity="0.25"
     inkscape:showpageshadow="2"
     inkscape:pageopacity="0.0"
     inkscape:pagecheckerboard="0"
     inkscape:deskcolor="#d1d1d1"
     showgrid="false"
     inkscape:zoom="0.32527881"
     inkscape:cx="617.93143"
     inkscape:cy="451.92"
     inkscape:window-width="1366"
     inkscape:window-height="705"
     inkscape:window-x="-8"
     inkscape:window-y="-8"
     inkscape:window-maximized="1"
     inkscape:current-layer="g6466" />
  <g
     inkscape:groupmode="layer"
     inkscape:label="Image"
     id="g6466"
     transform="translate(995.59991,-280.35898)">
    <g
       id="g9794"
       transform="translate(-2213.4856,98.377142)"
       inkscape:export-filename=".\g9794.png"
       inkscape:export-xdpi="96"
       inkscape:export-ydpi="96">
      <g
         id="g9790">
        <path
           style="fill:#790b0a;fill-opacity:1"
           d="m 1579.8857,505.0365 v -19.40348 l 5.0007,-0.34652 c 4.1468,-0.28735 5.0005,-0.0608 5,1.32685 -6e-4,1.52627 0.2638,1.54142 3.008,0.17244 8.9858,-4.4827 16.1591,6.44947 12.9659,19.76011 -1.868,7.78697 -7.016,10.68594 -13.2246,7.44723 l -2.75,-1.43453 v 5.94069 5.9407 h -5 -5 z m 14.9649,4.46923 c 1.6327,-3.05086 1.3011,-16.33932 -0.4649,-18.62461 -1.4848,-1.92151 -1.5151,-1.92151 -3,0 -2.8693,3.71318 -1.6402,20.55887 1.5,20.55887 0.5113,0 1.3955,-0.87042 1.9649,-1.93426 z m -43.9649,-14.56574 v -19.5 h 12.5 c 11.8334,0 12.5,0.10667 12.5,2 0,1.80952 -0.6666,2 -7,2 h -7 v 6.5 6.5 h 6 c 5.3334,0 6,0.22222 6,2 0,1.77778 -0.6666,2 -6,2 h -6 v 9 9 h -5.5 -5.5 z m 85.2163,17.51181 c -3.2703,-1.48428 -4.7438,-2.95775 -6.2281,-6.22804 -3.703,-8.15878 -1.8861,-21.07331 3.6572,-25.99563 5.109,-4.53663 13.1606,-5.92312 18.815,-3.23995 5.0586,2.40049 7.5295,9.69819 3.629,10.71819 -1.5252,0.39886 -2.0375,-0.17629 -2.5393,-2.85122 -0.8131,-4.33444 -2.9655,-6.41516 -6.6362,-6.41516 -2.2318,0 -3.4081,0.76444 -4.8663,3.16226 -3.9026,6.41729 -3.5127,23.45626 0.6417,28.0469 4.2669,4.71488 12.3107,0.40692 12.3107,-6.59316 0,-3.31755 0.261,-3.71787 2.2398,-3.43555 2.8501,0.40662 3.2706,2.66232 1.3523,7.25345 -2.841,6.7996 -13.7129,9.50976 -22.3758,5.57791 z m 30.0991,0.98121 c -2.4854,-1.00139 -4.3154,-3.91532 -4.3154,-6.87151 0,-3.11063 4.0048,-6.87914 9.3946,-8.84043 5.6697,-2.06312 7.654,-4.38864 5.9995,-7.03108 -2.3579,-3.76563 -10.1144,-2.11266 -9.0572,1.93014 0.3628,1.38748 -0.096,1.81986 -1.9305,1.81986 -1.8941,0 -2.4064,-0.52723 -2.4064,-2.47695 0,-4.62213 7.5488,-7.41764 16.4327,-6.08542 7.0183,1.05245 7.5673,2.08481 7.5673,14.22742 0,9.68119 0.1599,10.56399 2,11.0452 2.6516,0.69341 2.537,1.91258 -0.25,2.65946 -3.7044,0.99276 -7.254,0.71344 -9.2221,-0.72569 -1.5578,-1.13912 -2.2681,-1.1401 -4.4411,-0.006 -2.9207,1.52407 -6.5434,1.65575 -9.7714,0.35516 z m 10.4846,-4.19302 c 0.66,-0.66 1.2,-3.63989 1.2,-6.62197 0,-5.3966 -0.011,-5.41502 -2.25,-3.93535 -2.8241,1.86597 -4.2366,5.6821 -3.3746,9.11689 0.7079,2.82047 2.4707,3.39435 4.4246,1.44043 z m 18.2,-9.3 v -14.5 h 5 c 4.467,0 5,0.2318 5,2.17431 v 2.17432 l 2.5145,-2.36226 c 2.0953,-1.96837 2.9707,-2.20251 5.25,-1.40419 2.9086,1.01868 3.8672,3.76493 2.7994,8.01953 -0.4835,1.92637 -1.2528,2.39829 -3.9097,2.39829 -3.1065,0 -3.281,-0.18256 -2.8675,-3 0.257,-1.75081 -0.01,-3 -0.638,-3 -2.2108,0 -3.1487,4.15035 -3.1487,13.93426 v 10.06574 h -5 -5 z m 42,-5 v -19.5 h 5.829 5.829 l 2.8169,10.25 c 1.5494,5.6375 3.1302,10.85453 3.5131,11.5934 0.4172,0.80511 1.3938,-1.19832 2.4375,-5 0.9577,-3.48887 2.4108,-8.7059 3.2289,-11.5934 l 1.4876,-5.25 h 5.429 5.429 v 19.5 19.5 h -5 -5 v -13.16667 c 0,-7.24166 -0.2359,-12.93076 -0.5242,-12.64242 -0.2883,0.28833 -1.4301,3.85083 -2.5374,7.91666 -5.1204,18.80265 -4.7173,17.89243 -7.9239,17.89243 -2.7552,0 -3.0475,-0.40228 -4.9057,-6.75 -1.0867,-3.7125 -2.7933,-9.45 -3.7923,-12.75 l -1.8165,-6 -0.2798,12.75 c -0.2618,11.92417 -0.4075,12.75 -2.25,12.75 -1.8928,0 -1.9702,-0.76524 -1.9702,-19.5 z m 45.4546,17.04545 c -2.3344,-2.33436 -2.4546,-3.04433 -2.4546,-14.5 v -12.04545 h 5 5 v 11.53138 c 0,9.80975 0.2473,11.62625 1.6558,12.16676 1.0593,0.4065 2.3201,-0.18503 3.5,-1.64217 1.5117,-1.86689 1.8442,-4.04319 1.8442,-12.07024 v -9.7927 l 5.0007,-0.34652 5.0006,-0.34651 -6e-4,14.75 -7e-4,14.75 h -5 c -4.3209,0 -5,-0.26961 -5,-1.9853 0,-1.97964 -0.01,-1.97965 -3.25,-0.004 -4.406,2.68643 -8.3041,2.52578 -11.2954,-0.46551 z m 30.5454,-17.04545 v -19.5 h 5 5 v 19.5 19.5 h -5 -5 z m 19.2226,17.9433 c -2.0665,-1.4474 -2.2226,-2.32513 -2.2226,-12.5 0,-10.27663 -0.1218,-10.9433 -2,-10.9433 -1.1111,0 -2,-0.66667 -2,-1.5 0,-0.83333 0.8889,-1.5 2,-1.5 1.5241,0 2,-0.66667 2,-2.80153 0,-2.41351 0.6926,-3.09411 5,-4.91397 l 5,-2.11244 v 4.91397 c 0,4.2473 0.2714,4.91397 2,4.91397 1.1112,0 2,0.66667 2,1.5 0,0.83333 -0.8888,1.5 -2,1.5 -1.879,0 -2,0.66667 -2,11.01905 v 11.01905 l 2.75,-0.58874 2.75,-0.58874 -2.3607,2.06969 c -2.8051,2.45916 -7.8029,2.69401 -10.9167,0.51299 z m 15.7774,-12.9433 v -14.5 h 5 5 v 14.5 14.5 h -5 -5 z m 16,0.0965 v -14.40348 l 5.0007,-0.34652 c 4.6231,-0.32035 5.0005,-0.17653 5,1.90543 l -7e-4,2.25195 3.7352,-2.00195 c 4.68,-2.50831 7.3942,-2.52974 10.4041,-0.0821 2.1124,1.71783 2.5367,1.76151 4.0331,0.41526 0.9198,-0.8275 3.4551,-1.74365 5.6339,-2.03589 3.1536,-0.42298 4.3932,-0.0998 6.0776,1.58474 1.9291,1.92908 2.1161,3.22083 2.1161,14.6161 v 12.5 h -5 -5 v -11.53138 c 0,-9.77827 -0.25,-11.62734 -1.6446,-12.16248 -3.1667,-1.21523 -4.3554,2.43775 -4.3554,13.38495 v 10.30887 h -4.9682 -4.9683 l -0.2817,-11.73792 c -0.2419,-10.0782 -0.5202,-11.78361 -1.9679,-12.06103 -2.375,-0.4551 -3.8014,5.36887 -3.8083,15.54895 l -0.01,8.25 h -5 -5 V 500.0365 Z m 50.5,13.20854 c -2.7755,-1.57392 -3.4693,-2.83481 -3.4693,-6.30505 0,-4.33889 1.1052,-5.55245 8.1539,-8.9531 5.6639,-2.73254 6.3154,-3.355 6.3154,-6.0332 0,-3.25881 -1.7808,-4.162 -6.079,-3.0832 -1.7475,0.43858 -2.421,1.29782 -2.421,3.08856 0,1.81428 -0.5374,2.48095 -2,2.48095 -2.8686,0 -2.8016,-5.5006 0.086,-7.04593 3.3414,-1.78821 12.2629,-2.32414 16.3323,-0.9811 4.7729,1.57519 5.5819,3.81817 5.5819,15.4755 0,8.79675 0.126,9.35604 2.25,9.99317 2.1861,0.65574 2.1932,0.69967 0.25,1.54635 -3.1154,1.35747 -8.8491,1.15617 -11.0539,-0.38808 -1.7134,-1.20011 -2.2723,-1.20011 -3.9136,0 -2.2912,1.67539 -7.2605,1.777 -10.0325,0.20514 z m 11.0882,-4.17425 c 0.289,-0.75306 0.3874,-3.7075 0.2186,-6.56543 l -0.3068,-5.19623 -2.25,2.10439 c -2.1948,2.0528 -3.215,8.72807 -1.5833,10.3598 1.1355,1.13551 3.3698,0.73525 3.9215,-0.70253 z m 17.4118,-9.13079 v -14.5 h 5 c 4.3917,0 5,0.25215 5,2.07258 v 2.07258 l 2.6349,-2.07258 c 1.4492,-1.13992 3.4638,-2.07258 4.477,-2.07258 2.7864,0 5.0189,4.09625 4.2709,7.83629 -0.5576,2.78772 -1.0265,3.16371 -3.946,3.16371 -2.9621,0 -3.2933,-0.27988 -3.125,-2.64079 0.1035,-1.45243 -0.3454,-2.83031 -0.9976,-3.06196 -1.8243,-0.64789 -3.3024,6.25553 -3.3086,15.45275 l -0.01,8.25 h -5 -5 z m 31.5,13.15285 c -4.8679,-2.2386 -6.7991,-5.15728 -7.2243,-10.91835 -0.6581,-8.91472 4.2311,-15.32214 12.542,-16.43687 5.2113,-0.69898 9.5659,1.05411 11.1266,4.4793 1.0248,2.2492 0.9414,2.83355 -0.5614,3.93242 -2.5541,1.86758 -3.3829,1.6013 -3.3829,-1.08691 0,-3.14348 -2.3734,-4.9965 -5.4203,-4.23178 -3.0705,0.77065 -3.9436,3.37677 -3.9035,11.65219 0.039,8.1544 1.3958,10.95715 5.3023,10.95715 3.3011,0 6.0215,-3.07026 6.0215,-6.79583 0,-1.71031 0.4769,-2.25205 1.75,-1.98831 2.5476,0.52774 1.8843,5.60438 -1.1254,8.61417 -2.9884,2.98833 -10.5962,3.90524 -15.1246,1.82282 z m 24.8154,0.34017 c -2.4854,-1.00139 -4.3154,-3.91532 -4.3154,-6.87151 0,-3.11063 4.0048,-6.87914 9.3946,-8.84043 5.6697,-2.06312 7.654,-4.38864 5.9995,-7.03108 -2.3579,-3.76563 -10.1144,-2.11266 -9.0572,1.93014 0.3628,1.38748 -0.096,1.81986 -1.9305,1.81986 -1.8941,0 -2.4064,-0.52723 -2.4064,-2.47695 0,-4.62213 7.5488,-7.41764 16.4327,-6.08542 7.0183,1.05245 7.5673,2.08481 7.5673,14.22742 0,9.68119 0.1599,10.56399 2,11.0452 2.6516,0.69341 2.537,1.91258 -0.25,2.65946 -3.7044,0.99276 -7.254,0.71344 -9.2221,-0.72569 -1.5578,-1.13912 -2.2681,-1.1401 -4.4411,-0.006 -2.9207,1.52407 -6.5434,1.65575 -9.7714,0.35516 z m 10.4846,-4.19302 c 0.66,-0.66 1.2,-3.63989 1.2,-6.62197 0,-5.3966 -0.011,-5.41502 -2.25,-3.93535 -2.8241,1.86597 -4.2366,5.6821 -3.3746,9.11689 0.7079,2.82047 2.4707,3.39435 4.4246,1.44043 z m 21.4507,3.70942 c -1.7871,-0.77676 -3.7727,-2.56105 -4.4124,-3.96508 -1.3059,-2.86619 -1.2316,-3.02129 1.9117,-3.9875 1.6705,-0.51348 2.25,-0.28792 2.25,0.87577 0,4.27334 9.2126,7.78296 10.6433,4.05466 0.7881,-2.05384 -1.2625,-4.30139 -5.5637,-6.09809 -1.9688,-0.8224 -4.8171,-2.6806 -6.3296,-4.12932 -7.2319,-6.92699 1.1104,-16.00944 12.7067,-13.83397 3.473,0.65154 8.0112,5.00808 6.9707,6.69165 -1.0127,1.63857 -4.288,0.89718 -4.9267,-1.11522 -1.1661,-3.67404 -9.0007,-4.09936 -9.0007,-0.48862 0,1.40273 1.5329,2.73411 5.2177,4.53161 9.3143,4.54377 12.0635,8.75793 9.2018,14.10509 -2.3461,4.38381 -12.2226,6.16084 -18.6688,3.35902 z m -590.4877,-38.00942 c -3.1506,-16.32394 -4.0518,-28.22447 -3.4408,-45.43577 0.7834,-22.06664 3.8023,-35.2372 11.7049,-51.06423 12.3861,-24.80651 35.0338,-41.73627 65.7655,-49.1616 12.173,-2.94118 28.8301,-2.9322 39.4989,0.0213 20.4467,5.66035 38.4062,19.33771 52.596,40.05538 4.9657,7.25008 13.6954,23.33335 15.3354,28.25342 0.2331,0.69933 6.6382,-1.54631 16.8267,-5.89942 56.1027,-23.97027 116.1182,-41.75849 161.0539,-47.73537 5.395,-0.71757 5.1707,-0.21659 9.4163,-21.0337 3.1457,-15.42372 4.3547,-32.99746 2.5077,-36.44874 -1.1374,-2.12518 -1.6993,-2.26495 -6.883,-1.7119 -3.1044,0.33121 -10.8195,2.35202 -17.1445,4.49069 -12.1293,4.10126 -51.2552,19.72904 -57.9687,23.15401 -5.442,2.77631 -7.1346,2.51788 -3.5313,-0.53916 20.9269,-17.75407 44.4411,-31.15741 69.1322,-39.40607 12.1511,-4.05939 28.5719,-7.99376 33.486,-8.02316 2.1593,-0.0129 3.2838,-1.1537 6.4152,-6.50815 7.3059,-12.49261 20.2384,-23.27184 33.0262,-27.52734 3.5422,-1.17879 6.4404,-2.29429 6.4404,-2.4789 0,-0.49199 -22.7612,-7.89884 -35.4789,-11.54539 -41.4107,-11.8737 -83.8235,-17.41001 -107.5941,-14.04468 -44.6529,6.32173 -101.611,36.39731 -137.427,72.56556 -9.9103,10.00781 -20.1645,23.27285 -18.9152,24.4691 1.3919,1.33276 19.0678,3.84372 36.6492,5.20622 12.2867,0.95218 18.5369,0.9568 28.5272,0.0211 20.2129,-1.89314 27.1777,-4.0902 89.2388,-28.15074 35.9788,-13.94865 55.7419,-20.86246 71.5,-25.01318 10.5709,-2.78436 21.5433,-4.80283 20.5,-3.77111 -0.275,0.27194 -11.3,4.78184 -24.5,10.022 -35.0382,13.90953 -62.2795,25.6353 -85.5,36.8027 -22.8081,10.96911 -36.3094,15.78745 -54.3539,19.39785 -17.1653,3.43449 -29.0677,4.54398 -48.3566,4.50758 -18.1272,-0.0342 -31.3506,-1.46111 -46.2405,-4.98967 -9.2602,-2.19447 -9.6438,-2.20644 -19,-0.59313 -17.6781,3.04832 -25.1031,3.6145 -47.4012,3.6145 -28.1982,0 -52.3533,-2.84411 -81.6478,-9.61354 -32.4425,-7.49686 -48.6163,-16.50296 -53.0712,-29.55162 -1.4095,-4.12858 -2.2292,-5.2557 -3.625,-4.98484 -4.8328,0.93777 -24.3831,8.99485 -37.8038,15.57968 -17.3258,8.50088 -29.9379,16.51944 -40.5761,25.79749 -6.8896,6.00877 -16.7435,17.33563 -15.8151,18.17916 0.2152,0.19551 6.6912,-3.23945 14.3912,-7.63324 18.0661,-10.30892 52.7022,-28.56272 63.1355,-33.27344 l 8.1354,-3.67324 5.3646,5.11941 c 13.6158,12.99359 36.5559,24.42145 60.4815,30.12948 10.9871,2.62124 27.4213,4.88409 35.633,4.90638 3.7125,0.0101 6.75,0.38671 6.75,0.83697 0,0.45026 -12.9375,5.02116 -28.75,10.15754 -27.9911,9.09238 -29.687,9.79809 -64.25,26.73537 -19.525,9.56806 -43.9375,21.49909 -54.25,26.5134 -10.3125,5.01431 -18.75,9.49 -18.75,9.94598 0,0.45598 1.2375,0.84285 2.75,0.85971 1.5125,0.0169 11.9491,1.33536 23.1923,2.93001 l 20.4423,2.89936 36.5577,-24.554 c 20.1068,-13.5047 35.6577,-23.65414 34.5577,-22.55431 -1.1,1.09983 -16.4,14.27281 -34,29.27331 -17.6,15.00049 -32.7055,27.87703 -33.5679,28.61453 -1.3115,1.12158 -4.9918,1.10958 -22.5,-0.0734 -11.5126,-0.77784 -29.2665,-1.96825 -39.4529,-2.64536 -18.2174,-1.21094 -18.7663,-1.31459 -33.5,-6.32598 l -14.9792,-5.09481 -1.8348,-19.34808 -1.8348,-19.34808 5.739,-8.65192 c 11.1566,-16.81928 21.0516,-28.82749 36.4033,-44.17746 15.9202,-15.91836 27.1024,-24.67197 41.7876,-32.71185 11.2851,-6.17843 7.0046,-5.203 -7.3952,1.6852 -26.9701,12.90128 -53.6033,34.34397 -66.0861,53.20682 -1.3996,2.11496 -2.7215,3.84537 -2.9375,3.84537 -0.8468,0 3.2597,-6.98133 9.9995,-17 8.827,-13.12129 29.574,-34.21647 41.159,-41.84972 19.2376,-12.67544 43.5145,-21.2816 73.5972,-26.0902 14.3593,-2.29528 39.141,-4.37376 46.4028,-3.89187 l 5,0.33179 -11.5,5.66198 c -15.4606,7.61198 -22.9833,14.16452 -21.5275,18.75133 1.8963,5.97466 33.4987,15.87422 68.8244,21.55951 35.1384,5.65512 61.8318,5.97956 81.2788,0.98789 3.2584,-0.83637 9.9743,-3.53517 14.9243,-5.99733 14.5128,-7.21872 25.0755,-15.37112 61.5,-47.46623 18.7316,-16.50512 34.5544,-27.52022 45.25,-31.50099 2.6125,-0.97233 4.75,-2.06919 4.75,-2.43746 0,-0.88696 -34.0659,-7.63837 -50.5,-10.00842 -32.9536,-4.75242 -61.2358,-5.16286 -76.8514,-1.1153 -11.6702,3.02491 -33.3118,12.593 -69.3986,30.68216 -17.7375,8.89126 -32.25,16.05016 -32.25,15.90865 0,-0.1415 4.8375,-3.63177 10.75,-7.75615 36.9215,-25.7553 79.2214,-43.09329 123.75,-50.72295 25.4346,-4.35803 72.5973,-6.51527 110.308,-5.04554 68.6577,2.67584 120.619,10.69658 177.4504,27.39122 31.5866,9.27877 55.0598,14.09546 74.4831,15.28389 5.6422,0.34522 10.2897,0.67179 10.3278,0.72571 0.038,0.0539 0.4255,7.29375 0.8609,16.08852 2.2765,45.97986 -5.1684,82.3769 -20.4567,100.00951 -3.0881,3.56157 -3.1372,4.25284 0.924,-13 4.5863,-19.4836 5.4026,-36.45225 2.4054,-50 -3.4454,-15.57328 -13.3527,-25.65352 -27.8431,-28.32925 -16.218,-2.99476 -30.6189,6.90043 -40.9184,28.1161 -9.0416,18.62453 -12.976,36.55182 -13.7632,62.71315 -0.2896,9.625 -0.9463,17.76741 -1.4594,18.09425 -0.513,0.32684 -3.9446,0.68674 -7.6258,0.79979 -23.7434,0.72915 -66.2085,8.31396 -98.734,17.63515 -50.0038,14.33014 -99.4326,39.2087 -134.5665,67.73019 -5.5831,4.53234 -11.3849,9.24033 -12.8928,10.4622 l -2.7418,2.22157 2.8111,-8.22157 c 4.4946,-13.14498 6.356,-23.95523 6.3233,-36.72158 -0.055,-21.31072 -5.459,-35.25544 -18.7809,-48.46003 -12.4024,-12.29321 -22.5379,-16.50691 -39.756,-16.5281 -38.3541,-0.0472 -72.2608,36.1621 -81.4564,86.98813 -1.0063,5.56204 -1.9634,17.58317 -2.3089,29 l -0.5901,19.5 z m 409.487,5.83772 c -0.6875,-0.27741 -1.25,-1.58331 -1.25,-2.902 0,-3.94125 7.1832,-4.72796 8.6346,-0.94567 1.223,3.187 -3.2483,5.5167 -7.3846,3.84767 z m -509.75,-4.92089 c -20.5506,-2.4425 -19.2708,-2.04463 -21.6487,-6.72988 -3.6435,-7.17891 -7.8676,-12.68623 -12.0592,-15.72265 l -4.0337,-2.92194 2.8708,-1.09624 c 12.6472,-4.82945 111.6499,-39.00036 111.995,-38.65523 0.2435,0.24345 -2.5821,13.51477 -6.2791,29.49183 l -6.7218,29.0492 -21.0617,4.08561 c -22.416,4.34835 -25.8347,4.54676 -43.0616,2.4993 z m -104.5215,-35.25734 -8.4999,-6.84051 -2.2683,-9.79719 c -1.2475,-5.38845 -2.1427,-9.91285 -1.9892,-10.05422 0.2982,-0.27477 28.7909,10.16674 29.2245,10.70967 0.1417,0.17752 1.2209,4.37276 2.3981,9.32276 1.1772,4.95 2.4215,10.0125 2.765,11.25 0.604,2.17577 0.3977,2.25 -6.2528,2.25 h -6.8774 z m -17.9785,-50.92736 c 0,-16.65172 0.019,-16.79544 2.7454,-20.75 l 2.7454,-3.98213 0.6298,7 c 0.3465,3.85 0.9586,12.47635 1.3603,19.16967 l 0.7305,12.16967 -3.056,1.58033 c -1.6808,0.86918 -3.5284,1.58033 -4.1057,1.58033 -0.6912,0 -1.0497,-5.72709 -1.0497,-16.76787 z"
           id="path6488" />
      </g>
    </g>
  </g>
</svg>
