<?xml version="1.0" encoding="UTF-8" standalone="no"?>
<svg
   xmlns:dc="http://purl.org/dc/elements/1.1/"
   xmlns:cc="http://creativecommons.org/ns#"
   xmlns:rdf="http://www.w3.org/1999/02/22-rdf-syntax-ns#"
   xmlns:svg="http://www.w3.org/2000/svg"
   xmlns="http://www.w3.org/2000/svg"
   viewBox="0 0 1059.7867 1060"
   height="1060"
   width="1059.7867"
   xml:space="preserve"
   id="svg2"
   version="1.1"><metadata
     id="metadata8"><rdf:RDF><cc:Work
         rdf:about=""><dc:format>image/svg+xml</dc:format><dc:type
           rdf:resource="http://purl.org/dc/dcmitype/StillImage" /></cc:Work></rdf:RDF></metadata><defs
     id="defs6" /><g
     transform="matrix(1.3333333,0,0,-1.3333333,0,1060)"
     id="g10"><g
       transform="scale(0.1)"
       id="g12"><path
         id="path14"
         style="fill:#30a340;fill-opacity:1;fill-rule:nonzero;stroke:none"
         d="M 7948.43,3975.46 C 7948.43,1780.85 6168.88,0 3974.21,0 1778.98,0 0,1780.85 0,3975.46 0,6170.07 1778.98,7950 3974.21,7950 6168.88,7950 7948.43,6170.07 7948.43,3975.46" /><path
         id="path16"
         style="fill:#fefefe;fill-opacity:1;fill-rule:evenodd;stroke:none"
         d="m 4302.4,2058.34 c -106.5,-18.11 -213.55,-27.73 -269.94,-26.56 -414.75,1.23 -752.89,94.14 -1063.86,282.3 -39.78,24.15 -74.5,30.21 -120.95,18.1 -209.04,-57.88 -419.56,-109.77 -628.91,-165.25 -44.05,-13.28 -48.25,-3.64 -37.06,36.2 55.46,199.04 107.67,396.9 164.99,593.58 15.94,55.48 10.26,97.72 -21.43,147.21 -430.13,691.3 -412.03,1552.72 69.37,2192.2 500.11,665.97 1179.99,938.64 1993.47,764.93 C 5189.78,5732.1 5700.76,5214.57 5888.67,4417.02 6145.34,3326.35 5405.11,2241.74 4302.4,2058.34 Z M 6274.13,4529.26 C 6015,5604.23 5090.26,6337.48 3972.41,6350.14 c -147.2,-2.41 -301.32,-14.45 -453.66,-46.45 C 1959.35,5987.91 1151.3,4259 1911.42,2863.06 c 19.58,-37.38 21.13,-67.58 10.25,-106.19 -101.06,-367.98 -201.2,-735.96 -301.95,-1102.71 -16.3,-60.35 -16.3,-60.35 44.05,-44.67 381.57,100.14 762.53,199.1 1143.79,300.41 31.63,8.46 56.4,4.88 85.31,-9.64 491.09,-250.92 1008.38,-324.56 1550.07,-219.61 1294.27,250.99 2140.06,1567.31 1831.19,2848.61" /><path
         id="path18"
         style="fill:#ffffff;fill-opacity:1;fill-rule:evenodd;stroke:none"
         d="m 4589.52,2860.64 c -84.13,-3.64 -164.37,15.7 -244.92,37.44 -541.39,155.61 -947.67,494.62 -1274.08,941.05 -123.36,167.72 -237.63,341.42 -275.63,550.15 -45.58,250.98 26.51,463.3 213.25,637.07 59.42,54.29 240.35,78.39 312.75,43.42 26.87,-13.28 44.05,-37.43 55.22,-62.76 68.45,-162.89 136.03,-323.32 202.99,-486.21 12.67,-31.39 7.23,-61.53 -6.92,-92.91 -34.41,-74.81 -89.63,-135.1 -145.72,-194.21 -42.5,-43.49 -44.35,-83.27 -12.97,-135.16 191.25,-318.51 455.76,-550.16 801.75,-688.9 51.58,-20.5 90.5,-13.28 124.84,30.15 57.64,71.16 118.55,142.38 173.15,215.96 37.38,51.89 80.25,59.11 133,35.02 114.35,-51.89 228.62,-106.18 342.96,-160.49 25.65,-10.87 50.97,-24.15 76.3,-36.19 115.82,-57.95 114.65,-59.12 104.7,-186.99 -19.34,-249.75 -206.63,-372.86 -428.65,-434.38 -48.85,-13.23 -100.75,-14.47 -152.02,-12.06" /></g></g></svg>